<?xml version="1.0" encoding="utf-8"?>
<!-- Generator: Adobe Illustrator 18.0.0, SVG Export Plug-In . SVG Version: 6.00 Build 0)  -->
<!DOCTYPE svg PUBLIC "-//W3C//DTD SVG 1.1//EN" "http://www.w3.org/Graphics/SVG/1.1/DTD/svg11.dtd">
<svg version="1.1" id="Layer_1" xmlns="http://www.w3.org/2000/svg" xmlns:xlink="http://www.w3.org/1999/xlink" x="0px" y="0px"
	 viewBox="0 0 120 120" enable-background="new 0 0 120 120" xml:space="preserve">
<path fill="none" d="M77,106.7c-0.1-0.4-0.4-0.7-0.4-1.1c0.1-16.8,0.1-33.6,0.2-50.5c0-1.4-0.2-2.7-0.8-4c-1.4-3.5-4-5.9-7.2-7.8
	c-1.2-0.8-2.1-1.8-2.5-3.2c-0.3-1.2-0.3-2.4-0.1-3.5c0.3-2,0.6-4.1,0.6-6.2c0-3.1-0.6-6.2-1.1-9.2c-0.6-3.6-1.4-7-2.2-10.5
	c-0.1-0.2-0.1-0.4,0.1-0.6c1.1-1.9,0.9-3.7,0-5.6l0,0c0.4-1.6-0.7-3-2.4-3h-7c-1.7,0-2.8,1.4-2.4,3H52c-0.9,1.8-1.1,3.6-0.1,5.4
	c0.2,0.3,0.2,0.6,0.1,0.9c-0.4,1.4-0.7,2.7-0.9,4.1c-0.8,3.8-1.5,7.6-2,11.4c-0.4,2.8-0.4,5.5,0.1,8.3c0.2,1.3,0.5,2.7,0.4,4
	c-0.1,1.9-0.9,3.4-2.5,4.4s-3.2,2.2-4.5,3.6c-2.4,2.5-3.6,5.4-3.6,9C39,71.9,39,88,39.1,104.1c0,1,0,2-0.4,3
	c-0.7,1.7-0.7,3.4-0.2,5.1c0.4,1.5,0.8,3,2,4.1c1.8,1.7,3.8,2.4,6.2,2.4c3.7,0,7.5,0,11.2,0c3.7,0,7.3,0,11,0c0.9,0,1.9-0.1,2.8-0.4
	c2.5-0.8,4.5-2.2,5.3-4.9c0.2-0.9,0.5-1.8,0.6-2.7C77.7,109.3,77.5,108,77,106.7z"/>
</svg>
